/* XPM */
static char * collectible_xpm[] = {
"32 32 9 1",
" 	c #0F1833",
".	c #211D1D",
"+	c #453625",
"@	c #6F5756",
"#	c #FAFA82",
"$	c #BAA368",
"%	c #8C6A56",
"&	c #874A00",
"*	c #17394A",
"   ...+++++++++++++..+++..... ..",
" +@@@@+++++++++++++++++++++++++ ",
"+@@@@@@+++@@@@@@@@@@@@@@@@@@@@+ ",
"+@@@@@@@@@@@@@@@@@@@@@@@@@@@@@@+",
"+@@@@@@@@@@@@@@@@@@@@@@@@@@@@@@@",
"+@@@@@@@@@@@@@@@@@@@@@@@@@@@@@@@",
"+@@@@@@@@@@@@@@@@@@@@@@@@@@@@@@+",
"+@@@@@@@@@@@@@@@@@@@@@@@@@@@@@@+",
"+@@@@@@@@@@@@@@@@@@@@@@@@@@@@@@+",
"@@@@@@@@@@@@@@@####@@@@@@@@@@@@+",
"@@@@@@@@@@@@@@##$$$#@@@@@@@@@@@+",
"@@@@@@@@@@@@$%######@@@@@@@@@@@+",
"@@@@@@@@@@@$$%%####%@@@@@@@@@@@@",
"@@@@@@@@@@@#$%#$%%%$@@@@@@@@@@@@",
"+@@@@@@@@@@%#%$###$&@@@@@@@@@@@@",
"++@@@@@@@@@*%%#$$&&$@@@@@@@@@@@@",
"++@@@@@@####**$###$*####@@@@@@@@",
"++@@@@@##$$$#*#$$&*##$$$#@@@@@@@",
"++@@@@@######*&###$######@@@@@@@",
"+@@@@@@%####%*$&&**%####%@@@@@@@",
"@@@@@@@#$&&&$*&$$#$#$%%%$@@@@@@+",
"@@@@@@@&##$$*@@&&**$###$*@@@@@++",
"@@@@@@@@&&**@@@@@@@#$$&*$@@@@@++",
"@@@@@@@@@@@@@@@@@@@$##$$*@@@@@++",
"@@@@@@@@@@@@@@@@@@@@$&&*@@@@@@++",
"@@@@@@@@@@@@@@@@@@@@@@@@@@@@@@++",
"@@@@@@@@@@@@@@@@@@@@@@@@@@@@@@@+",
"@@@@@@@@@@@@@@@@@@@@@@@@@@@@@@@@",
"@@@@@@@@@@@@@@@@@@@@@@@@@@@@@@@@",
"+@@@@@@@@@@@@@@@@@@@@@@@@@@@@@@@",
"+@@@@@@@@@@@@@@@@@@@@@@@@@@@@@@@",
" +@@@+++@@@@@@@@@@@@@@+++@@@@@@+"};
