/* XPM */
static char * player_xpm[] = {
"32 32 12 1",
" 	c #0F1833",
".	c #211D1D",
"+	c #453625",
"@	c #6F5756",
"#	c #DEF9FC",
"$	c #A5B5D4",
"%	c #000000",
"&	c #5A5875",
"*	c #42428F",
"=	c #A84111",
"-	c #FF4D00",
";	c #8D768A",
"   ...+++++++++++++..+++..... ..",
" +@@@@+++++++++++++++++++++++++ ",
"+@@@@@@+++@@@@@@@##@@@@@@@@@@@+ ",
"+@@@@@@@@@@@@@@@##$$@@@@@@@@@@@+",
"+@@@@@@@@@@@@@@##$$$$@@@@@@@@@@@",
"+@@@@@@@@@@@@@$#$$$$$@@@@@@@@@@@",
"+@@@@@@@@@@@@@%$%%$$$@@@@@@@@@@+",
"+@@@@@@@@@@@@@$#$$$&&@@@@@@@@@@+",
"+@@@@@@@@@@@$@&$&&&&&@@@$@@@@@@+",
"@@@@@@@@@@$&$*&$&&&&*@&$&@@@@@@+",
"@@@@@@@@@$$$&$*#****$&$&$$@@@@@+",
"@@@@@@@@@$$$$$#$$$$$&$&$$$$@@@@+",
"@@@@@@@@@$$&$$#$$$$$&$$$$$$@@@@@",
"@@@@@@@@@@$&$$#$$$$$&$$$$$@@@@@@",
"+@@@@@@@@@@&&$#$$$$$$&&$$&$@@@@@",
"++@@@@@@@@&&&$$#$$$$=@@$&$$@@@@@",
"++@@@@@@@@&&&========@@@$$$@@@@@",
"++@@@@@@@&&&$=======$@@@&&&@@@@@",
"++@@@@@@-$&&$$$$$$$$$$@@$$$$@@@@",
"+@@@@@@-#-$@$;$$$$;$$$$@$$$@@@@@",
"@@@@@@@##-$@$;$$$$;$$$$@&$$@@@@+",
"@@@@@@##--@@;;;$$;;;$$$@$$$@@@++",
"@@@@@##@@@@@$$;;;@;;;;;@@$$@@@++",
"@@@@##@@@@@@@$;;;@@$$$;@@@@@@@++",
"@@@##@@@@@@@@@$**@@$$$&@@@@@@@++",
"@@##@@@@@@@@@@***@@@&&$$@@@@@@++",
"@##@@@@@@@@@@@***@@@@$$$@@@@@@@+",
"##@@@@@@@@@@@@***@@@@$$$@@@@@@@@",
"#@@@@@@@@@@@@****@@@@$$$@@@@@@@@",
"+@@@@@@@@@@@@@@@@@@@@$$$@@@@@@@@",
"+@@@@@@@@@@@@@@@@@@@@@@@@@@@@@@@",
" +@@@+++@@@@@@@@@@@@@@+++@@@@@@+"};
